normalP112_grf.mot
version=1
nRows=20
nColumns=19
inDegrees=yes
endheader
time	1_ground_force_vx	1_ground_force_vy	1_ground_force_vz	1_ground_force_px	1_ground_force_py	1_ground_force_pz	1_ground_torque_x	1_ground_torque_y	1_ground_torque_z	2_ground_force_vx	2_ground_force_vy	2_ground_force_vz	2_ground_force_px	2_ground_force_py	2_ground_force_pz	2_ground_torque_x	2_ground_torque_y	2_ground_torque_z
            1.850000	           95.048278	          277.221945	           11.245586	            0.334389	            0.003601	           -0.343929	           -0.220851	           -0.644143	           -0.026130	          -48.322135	          291.005457	           -1.201491	            0.798787	            0.001385	           -0.197338	            0.020813	           -0.125337	            0.000517
            1.851000	           94.054367	          270.135335	           10.279462	            0.334293	            0.003600	           -0.343540	           -0.220614	           -0.633628	           -0.024111	          -47.668531	          297.237573	           -0.909678	            0.798912	            0.001384	           -0.197238	            0.028205	           -0.175872	            0.000538
            1.852000	           92.928835	          262.569017	            9.555508	            0.334413	            0.003600	           -0.343632	           -0.206402	           -0.583185	           -0.021223	          -47.022416	          302.431885	           -1.231348	            0.799562	            0.001379	           -0.196619	            0.023539	           -0.151397	            0.000616
            1.853000	           91.879404	          254.684849	            8.684510	            0.333933	            0.003602	           -0.343855	           -0.192957	           -0.534866	           -0.018238	          -46.720310	          308.506890	           -1.418349	            0.799612	            0.001378	           -0.196327	            0.020775	           -0.137180	            0.000631
            1.854000	           90.703743	          248.553837	            7.822488	            0.334187	            0.003600	           -0.343594	           -0.191466	           -0.524670	           -0.016512	          -46.572623	          313.861525	           -1.610199	            0.800014	            0.001374	           -0.195749	            0.023032	           -0.155216	            0.000796
            1.855000	           89.067296	          241.787665	            7.078664	            0.333688	            0.003599	           -0.343165	           -0.192221	           -0.521814	           -0.015277	          -46.489701	          320.978562	           -2.238195	            0.800459	            0.001373	           -0.195699	            0.021876	           -0.151039	            0.001053
            1.856000	           87.444386	          234.059645	            6.214898	            0.335065	            0.003601	           -0.344075	           -0.153193	           -0.410047	           -0.010888	          -46.814035	          328.173084	           -2.536394	            0.801098	            0.001369	           -0.195302	            0.021549	           -0.151060	            0.001168
            1.857000	           85.753052	          226.574950	            5.459570	            0.334765	            0.003599	           -0.343718	           -0.154333	           -0.407776	           -0.009826	          -47.184943	          334.569926	           -3.062532	            0.801463	            0.001366	           -0.194894	            0.022414	           -0.158927	            0.001455
            1.858000	           84.026774	          220.685126	            4.735496	            0.334756	            0.003596	           -0.343121	           -0.160375	           -0.421204	           -0.009038	          -47.756081	          340.168109	           -3.747762	            0.801939	            0.001363	           -0.194388	            0.019036	           -0.135597	            0.001494
            1.859000	           82.152435	          213.597104	            4.073707	            0.334847	            0.003598	           -0.343446	           -0.139092	           -0.361642	           -0.006897	          -48.479978	          346.484854	           -4.221989	            0.802791	            0.001360	           -0.194129	            0.024213	           -0.173048	            0.002109
            1.860000	           80.101711	          206.271046	            3.448598	            0.335287	            0.003597	           -0.343408	           -0.133078	           -0.342691	           -0.005729	          -49.372029	          352.882617	           -4.826729	            0.803343	            0.001357	           -0.193768	            0.022903	           -0.163694	            0.002239
            1.861000	           78.120266	          199.023056	            2.747556	            0.335850	            0.003598	           -0.343835	           -0.110205	           -0.280763	           -0.003876	          -50.464531	          358.640057	           -5.420903	            0.804387	            0.001353	           -0.193310	            0.025863	           -0.183806	            0.002778
            1.862000	           76.016121	          191.778169	            2.076840	            0.336454	            0.003596	           -0.343819	           -0.097569	           -0.246153	           -0.002666	          -51.673074	          363.679413	           -6.057881	            0.804918	            0.001349	           -0.192902	            0.027649	           -0.194595	            0.003241
            1.863000	           73.759588	          185.009952	            1.592000	            0.336565	            0.003598	           -0.344235	           -0.076451	           -0.191760	           -0.001650	          -53.042656	          368.718116	           -6.695416	            0.805659	            0.001345	           -0.192328	            0.027102	           -0.188396	            0.003421
            1.864000	           71.519203	          178.401776	            1.016292	            0.336881	            0.003594	           -0.343636	           -0.084964	           -0.211941	           -0.001207	          -54.489647	          373.358882	           -7.304866	            0.806441	            0.001344	           -0.192365	            0.033515	           -0.229643	            0.004493
            1.865000	           69.194400	          171.711984	            0.493678	            0.337606	            0.003594	           -0.343918	           -0.060571	           -0.150312	           -0.000432	          -55.989944	          378.157676	           -7.944225	            0.807356	            0.001339	           -0.191818	            0.034220	           -0.231124	            0.004855
            1.866000	           66.270828	          164.465692	            0.234643	            0.338390	            0.003589	           -0.343226	           -0.070152	           -0.174098	           -0.000248	          -57.552691	          382.318679	           -8.572194	            0.808086	            0.001338	           -0.191707	            0.039011	           -0.259145	            0.005810
            1.867000	           63.601442	          157.616799	           -0.197782	            0.339026	            0.003593	           -0.344247	           -0.045445	           -0.112622	            0.000141	          -59.156037	          385.199283	           -9.153562	            0.808591	            0.001333	           -0.191081	            0.037139	           -0.241831	            0.005747
            1.868000	           61.047365	          151.008025	           -0.758631	            0.339519	            0.003594	           -0.344598	           -0.012344	           -0.030535	            0.000153	          -60.667199	          388.160555	           -9.757552	            0.809373	            0.001331	           -0.190849	            0.041563	           -0.265928	            0.006685
            1.869000	           58.196302	          145.196599	           -0.986901	            0.340392	            0.003588	           -0.343898	           -0.034334	           -0.085661	            0.000582	          -62.200272	          391.919953	          -10.287521	            0.810338	            0.001327	           -0.190490	            0.042121	           -0.265399	            0.006966
